<?xml version="1.0" encoding="utf-8"?>
<!-- Generator: Adobe Illustrator 18.1.1, SVG Export Plug-In . SVG Version: 6.00 Build 0)  -->
<!DOCTYPE svg PUBLIC "-//W3C//DTD SVG 1.1//EN" "http://www.w3.org/Graphics/SVG/1.1/DTD/svg11.dtd">
<svg version="1.1" id="Layer_1" xmlns="http://www.w3.org/2000/svg" xmlns:xlink="http://www.w3.org/1999/xlink" x="0px" y="0px"
	 viewBox="0 0 163.7 132.8" enable-background="new 0 0 163.7 132.8" xml:space="preserve">
<polygon fill="#F9C621" points="30.3,94 19.9,73.4 18.4,76.8 0.8,61.8 18.4,86.4 19.5,83.4 "/>
<path fill="none" stroke="#000000" stroke-miterlimit="10" d="M61.8,118.6"/>
<path fill="none" stroke="#808080" stroke-miterlimit="10" d="M69,114.4"/>
<linearGradient id="SVGID_1_" gradientUnits="userSpaceOnUse" x1="56.799" y1="131.4935" x2="38.0538" y2="99.0259">
	<stop  offset="0" style="stop-color:#808080"/>
	<stop  offset="0.293" style="stop-color:#5E5E5E"/>
	<stop  offset="0.9374" style="stop-color:#090909"/>
	<stop  offset="1" style="stop-color:#000000"/>
</linearGradient>
<path fill="url(#SVGID_1_)" d="M52.1,127.1l-3.7-4.1l18,2.5l6.4-3.2l5.1-3.5l-0.5-4l-10-2l-52.1-0.6
	C34.8,117.7,52.1,127.1,52.1,127.1z"/>
<linearGradient id="SVGID_2_" gradientUnits="userSpaceOnUse" x1="39.6657" y1="138.9072" x2="13.7759" y2="101.9326">
	<stop  offset="0" style="stop-color:#808080"/>
	<stop  offset="1" style="stop-color:#666666"/>
</linearGradient>
<path fill="url(#SVGID_2_)" d="M0.2,111.5l0,4.8c0,0-0.1,2.3,1.1,3.7c0.9,1.1,2.3,2,3.7,2.2c18,2.9,49.4,6.3,49.4,6.3l0.2-4.4
	L0.2,111.5z"/>
<path fill="#C9C9C9" d="M54.6,124.2l-6.1-5.8l18.1,2.6l-7.1-4.4l12.8,0.8l-3.1-3.3l8,0.4c0,0-25.9-7.1-41.8-10.8
	c-13.6,3.5-35.4,7.6-35.4,7.6C19.7,117.1,54.6,124.2,54.6,124.2z"/>
<g>
	<defs>
		<path id="SVGID_37_" d="M54.6,124.2l-6.1-5.8l18.1,2.6l-7.1-4.4l12.8,0.8l-3.1-3.3l8,0.4c0,0-25.9-7.1-41.8-10.8
			c-13.6,3.5-35.4,7.6-35.4,7.6C19.7,117.1,54.6,124.2,54.6,124.2z"/>
	</defs>
	<clipPath id="SVGID_3_">
		<use xlink:href="#SVGID_37_"  overflow="visible"/>
	</clipPath>
	<polygon clip-path="url(#SVGID_3_)" fill="#666666" points="28.5,116.3 33.4,114.5 42.4,116.9 39.1,118.6 	"/>
	<polygon clip-path="url(#SVGID_3_)" fill="#666666" points="47.3,114.6 51.8,112.5 59.4,114.4 55.6,116.8 	"/>
	<polygon clip-path="url(#SVGID_3_)" fill="#666666" points="15.7,109.8 23.1,108.1 29.4,109.9 22.6,111.6 	"/>
	<g clip-path="url(#SVGID_3_)">
		<line fill="none" stroke="#666666" stroke-width="0.75" stroke-miterlimit="10" x1="30.5" y1="106.6" x2="70.3" y2="117.6"/>
		<line fill="none" stroke="#666666" stroke-width="0.75" stroke-miterlimit="10" x1="15.7" y1="109.9" x2="50.8" y2="119.2"/>
		<line fill="none" stroke="#666666" stroke-width="0.75" stroke-miterlimit="10" x1="23.6" y1="108.1" x2="65" y2="119.6"/>
		<line fill="none" stroke="#666666" stroke-width="0.75" stroke-miterlimit="10" x1="16.9" y1="113.4" x2="40.9" y2="107"/>
		<line fill="none" stroke="#666666" stroke-width="0.75" stroke-miterlimit="10" x1="28.2" y1="116.1" x2="48.4" y2="108.8"/>
		<line fill="none" stroke="#666666" stroke-width="0.75" stroke-miterlimit="10" x1="38.6" y1="118.6" x2="51.8" y2="112.5"/>
		<line fill="none" stroke="#666666" stroke-width="0.75" stroke-miterlimit="10" x1="59.1" y1="114.6" x2="51.8" y2="119.4"/>
		<polyline fill="none" stroke="#666666" stroke-width="0.75" stroke-miterlimit="10" points="71.2,114.9 35.6,105.4 8.8,111.5 
			54.1,122.4 		"/>
	</g>
</g>
<linearGradient id="SVGID_4_" gradientUnits="userSpaceOnUse" x1="57.0564" y1="129.5771" x2="94.1169" y2="129.5771">
	<stop  offset="0" style="stop-color:#808080"/>
	<stop  offset="1" style="stop-color:#666666"/>
</linearGradient>
<polygon fill="url(#SVGID_4_)" points="90.4,126.4 57.1,126.9 57.6,132.2 94.1,132.8 "/>
<linearGradient id="SVGID_5_" gradientUnits="userSpaceOnUse" x1="90.4119" y1="122.8601" x2="111.4666" y2="122.8601">
	<stop  offset="0" style="stop-color:#808080"/>
	<stop  offset="1" style="stop-color:#666666"/>
</linearGradient>
<path fill="url(#SVGID_5_)" d="M108.6,112.9l2.8,1.1l-15.2,17c0,0-1.4,2.2-3.2,1.6c-1.6-0.5-1.9-3.1-1.9-3.1l-0.8-3.2L108.6,112.9z"
	/>
<g>
	<defs>
		<path id="SVGID_41_" d="M57.1,126.9c18,0.6,33.4-0.5,33.4-0.5l18.2-13.4c0,0-20.4,1.4-28.8,2l-3.8,1.6l1.8,1.8l-10.3,1.5l2.7,2.7
			L57.1,126.9z"/>
	</defs>
	<use xlink:href="#SVGID_41_"  overflow="visible" fill="#C9C9C9"/>
	<clipPath id="SVGID_6_">
		<use xlink:href="#SVGID_41_"  overflow="visible"/>
	</clipPath>
	<g clip-path="url(#SVGID_6_)">
		<g>
			<polyline fill="none" stroke="#666666" stroke-width="0.75" stroke-miterlimit="10" points="61.1,125 89.3,124.4 103.6,114.9 
				74.3,116.4 			"/>
			<line fill="none" stroke="#666666" stroke-width="0.75" stroke-miterlimit="10" x1="97.5" y1="115.2" x2="82.8" y2="124.4"/>
			<line fill="none" stroke="#666666" stroke-width="0.75" stroke-miterlimit="10" x1="76.1" y1="124.7" x2="90.2" y2="115.7"/>
			<line fill="none" stroke="#666666" stroke-width="0.75" stroke-miterlimit="10" x1="69.6" y1="124.8" x2="79.6" y2="118.6"/>
			<line fill="none" stroke="#666666" stroke-width="0.75" stroke-miterlimit="10" x1="67.8" y1="122.7" x2="92.7" y2="122.1"/>
			<line fill="none" stroke="#666666" stroke-width="0.75" stroke-miterlimit="10" x1="67.6" y1="119.1" x2="99" y2="117.9"/>
			<polygon fill="#666666" points="85.8,118.5 89.9,115.8 97.1,115.4 92.5,118.2 			"/>
			<polygon fill="#666666" points="70.1,124.5 73.3,122.6 79.6,122.5 76.7,124.3 			"/>
		</g>
	</g>
</g>
<polygon fill="#F9C621" points="29.7,101.8 16.5,100.3 17.3,98.9 4.7,95.5 22.5,95.3 21.4,97 "/>
<g>
	
		<linearGradient id="SVGID_7_" gradientUnits="userSpaceOnUse" x1="0.9617" y1="72.3709" x2="0.9617" y2="58.4895" gradientTransform="matrix(0.9868 -0.1619 0.1619 0.9868 26.8526 -57.1118)">
		<stop  offset="0" style="stop-color:#4D4D4D"/>
		<stop  offset="1" style="stop-color:#969696"/>
	</linearGradient>
	<polygon fill="url(#SVGID_7_)" points="45.5,12.1 35.8,14.8 32.8,11.6 40,0 43.3,2 	"/>
	<rect x="31.6" y="1" transform="matrix(0.9741 -0.2263 0.2263 0.9741 -0.3697 8.3875)" fill="#B0B0B0" width="9.7" height="9.7"/>
</g>
<g>
	
		<linearGradient id="SVGID_8_" gradientUnits="userSpaceOnUse" x1="-79.0672" y1="163.1626" x2="-79.0672" y2="150.8536" gradientTransform="matrix(0.9797 -0.2627 0.3689 0.9218 41.1625 -100.6919)">
		<stop  offset="0" style="stop-color:#4D4D4D"/>
		<stop  offset="1" style="stop-color:#969696"/>
	</linearGradient>
	<polygon fill="url(#SVGID_8_)" points="27.2,69.6 18,70.3 16.9,62.7 18.7,59.3 28,66.1 	"/>
	<polygon fill="#B0B0B0" points="28,66.1 20,66.7 18.7,59.3 26.6,58.7 	"/>
</g>
<g>
	
		<linearGradient id="SVGID_9_" gradientUnits="userSpaceOnUse" x1="-60.8251" y1="240.2887" x2="-60.8251" y2="227.6407" gradientTransform="matrix(0.9023 -0.4505 0.6224 0.7975 48.7995 -156.6678)">
		<stop  offset="0" style="stop-color:#4D4D4D"/>
		<stop  offset="1" style="stop-color:#969696"/>
	</linearGradient>
	<polygon fill="url(#SVGID_9_)" points="145.6,61.3 137.4,64 134.2,56.4 135.4,52.4 146.5,56.9 	"/>
	<polygon fill="#B0B0B0" points="146.5,56.9 138.8,59.1 135.4,52.4 143.1,50.2 	"/>
</g>
<g>
	
		<linearGradient id="SVGID_10_" gradientUnits="userSpaceOnUse" x1="-479.9183" y1="297.7289" x2="-472.6246" y2="295.938" gradientTransform="matrix(0.2385 -0.9712 0.9712 0.2385 -165.1371 -442.4987)">
		<stop  offset="0" style="stop-color:#4D4D4D"/>
		<stop  offset="1" style="stop-color:#969696"/>
	</linearGradient>
	<polygon fill="url(#SVGID_10_)" points="13.5,88.9 11.4,94.6 6.8,92.5 5.7,89.6 12.4,87.1 	"/>
	
		<rect x="6.5" y="85.8" transform="matrix(0.4221 -0.9065 0.9065 0.4221 -74.8557 59.2235)" fill="#B0B0B0" width="5.1" height="5.1"/>
</g>
<g>
	
		<linearGradient id="SVGID_11_" gradientUnits="userSpaceOnUse" x1="-151.9103" y1="266.6719" x2="-147.9174" y2="259.2761" gradientTransform="matrix(0.9277 -0.3361 0.5009 0.8965 70.8634 -177.1428)">
		<stop  offset="0" style="stop-color:#4D4D4D"/>
		<stop  offset="1" style="stop-color:#969696"/>
	</linearGradient>
	<polygon fill="url(#SVGID_11_)" points="67.6,110.7 60.8,112.7 59.2,107.2 60.5,104.6 67.9,109 	"/>
	<polygon fill="#B0B0B0" points="67.9,109 62.2,109.9 60.5,104.6 66.1,103.8 	"/>
</g>
<polygon fill="#F9C621" points="129.4,80.4 143,61.7 144,65.4 163.7,53.4 142.4,74.9 141.8,71.7 "/>
<linearGradient id="SVGID_12_" gradientUnits="userSpaceOnUse" x1="33.6228" y1="33.8066" x2="-0.2114" y2="33.8066">
	<stop  offset="0" style="stop-color:#89CAED"/>
	<stop  offset="0.1369" style="stop-color:#91D3F6"/>
	<stop  offset="0.3653" style="stop-color:#97DAFD"/>
	<stop  offset="1" style="stop-color:#99DCFF"/>
</linearGradient>
<path fill="url(#SVGID_12_)" d="M34.9,58.5c0,0-11,3.5-24.2-13.2c-3.3-4.2-6.3-9.6-8.5-12.9c-2.2-3.3-3.6-11-0.2-15.3
	c3.1-3.9,10.6-9.4,18.5-8.3c5.6,0.8,6.2,6.4,6.2,6.4s4,1.7,4,5.1S30.4,34.9,36.9,39C43.4,43.1,34.9,58.5,34.9,58.5z"/>
<linearGradient id="SVGID_13_" gradientUnits="userSpaceOnUse" x1="36.0532" y1="40.9702" x2="0.4617" y2="40.9702">
	<stop  offset="5.102041e-03" style="stop-color:#76B4D9"/>
	<stop  offset="1" style="stop-color:#99DCFF"/>
</linearGradient>
<path fill="url(#SVGID_13_)" d="M31.6,53.8c-9.3,0.6-25.3-17.6-19.7-20.6c5.6-3,6.7-10.1,6.7-10.1c-0.3,0.7-2.1,2.8-3.4,3.4
	s-3.4-0.4-5.2,0c-1.8,0.4-3.1,4-5.4,3.6c-1.2-0.2-2.8-1.2-4.1-2.1c0.4,1.8,1,3.4,1.8,4.5c2.2,3.3,5.2,8.7,8.5,12.9
	C23.9,62,34.9,58.5,34.9,58.5s0.5-0.9,1.1-2.2C36.1,54.7,35,53.6,31.6,53.8z"/>
<linearGradient id="SVGID_14_" gradientUnits="userSpaceOnUse" x1="35.0632" y1="27.0554" x2="27.0006" y2="27.0554">
	<stop  offset="5.102041e-03" style="stop-color:#76B4D9"/>
	<stop  offset="1" style="stop-color:#99DCFF;stop-opacity:0"/>
</linearGradient>
<path fill="url(#SVGID_14_)" d="M35.1,37.5c-4.6-4.8-4.3-14-4.3-17c0-1.7-1-3-2-3.8c0.1,1.1,0.2,2.5-0.3,3.1
	c-0.9,1.1-2.1,3.2-1.2,4.9C28.2,26.2,30,37.9,35.1,37.5z"/>
<g>
	<linearGradient id="SVGID_15_" gradientUnits="userSpaceOnUse" x1="27.8406" y1="15.8581" x2="27.5118" y2="15.8581">
		<stop  offset="5.102041e-03" style="stop-color:#76B4D9"/>
		<stop  offset="1" style="stop-color:#99DCFF"/>
	</linearGradient>
	<path fill="url(#SVGID_15_)" d="M27.5,15.9h0.3C27.8,15.9,27.7,15.9,27.5,15.9L27.5,15.9z"/>
	<linearGradient id="SVGID_16_" gradientUnits="userSpaceOnUse" x1="26.88" y1="12.091" x2="13.2751" y2="12.091">
		<stop  offset="5.102041e-03" style="stop-color:#76B4D9"/>
		<stop  offset="1" style="stop-color:#99DCFF"/>
	</linearGradient>
	<path fill="url(#SVGID_16_)" d="M22.8,14c1.6,0.3,3.2,1,4.1,1.4c-0.1-0.1-0.1-0.1-0.1-0.1s-0.6-5.7-6.2-6.4c-2.5-0.3-5,0-7.3,0.7
		C18.6,10.1,22.5,11.9,22.8,14z"/>
</g>
<linearGradient id="SVGID_17_" gradientUnits="userSpaceOnUse" x1="16.6832" y1="17.2427" x2="20.782" y2="17.2427">
	<stop  offset="5.102041e-03" style="stop-color:#76B4D9"/>
	<stop  offset="1" style="stop-color:#99DCFF"/>
</linearGradient>
<path fill="url(#SVGID_17_)" d="M19.3,18.1c-0.6-0.9-0.1-2.8,0.4-4.2c-1.1,0.2-2,0.8-2.5,1.9c-2,4.4,1.3,4.8,1.3,4.8l2.2-1.1
	C20.3,19.2,19.7,18.8,19.3,18.1z"/>
<path fill="none" d="M27.7,15.8c0,0-8.4-4.4-10.4,0c-2,4.4,1.3,4.8,1.3,4.8L27.7,15.8z"/>
<path fill="#99DDFF" d="M111.6,56.7c0,9.1-2.7,17.5-7.3,24.4C97.1,92,45.2,91.5,38,79.8c-4.1-6.7-6.5-14.6-6.5-23.2
	c0-24.6,19.1-42.5,41.2-42.5C94.9,14.2,111.6,30.9,111.6,56.7z"/>
<linearGradient id="SVGID_18_" gradientUnits="userSpaceOnUse" x1="38.81" y1="84.0137" x2="38.81" y2="59.956">
	<stop  offset="5.102041e-03" style="stop-color:#76B4D9"/>
	<stop  offset="1" style="stop-color:#99DCFF"/>
</linearGradient>
<path fill="url(#SVGID_18_)" d="M43,76.6c-6.4-3.9-9.8-11.7-11.3-16.7c0.5,7.3,2.8,14.1,6.4,19.9c1,1.6,2.8,3,5.3,4.2
	C46.3,82.3,47.4,79.3,43,76.6z"/>
<linearGradient id="SVGID_19_" gradientUnits="userSpaceOnUse" x1="65.9739" y1="110.983" x2="69.2212" y2="73.8659">
	<stop  offset="7.975460e-02" style="stop-color:#1B354C"/>
	<stop  offset="0.1558" style="stop-color:#1D3952"/>
	<stop  offset="0.3846" style="stop-color:#224461"/>
	<stop  offset="0.5767" style="stop-color:#244766"/>
	<stop  offset="1" style="stop-color:#1B354C"/>
</linearGradient>
<path fill="url(#SVGID_19_)" d="M101.6,76.7C96,81,85.7,85.1,74.3,85.1c-2.8,0-5.4-0.1-8-0.4c-4-0.7-6.3-1.2-6.3-1.2
	s-7.6-7-17.2-7.6c-15.2-1-11.8,20-11.8,20s5.6,3.1,26.4,5c0,0,0.2-6.9,5.6-9.6c4.8,1.1,10.2,4.3,10.7,17c3.8,4.3,16.7,7,21.2,0.7
	c2.1-2.9,2.8-8,2.8-8s-1.4-8.1,1.1-12.8c3.3-1.2,6.8-2.6,6.8-4.3V79L101.6,76.7z"/>
<linearGradient id="SVGID_20_" gradientUnits="userSpaceOnUse" x1="66.1082" y1="44.8828" x2="66.1082" y2="67.019">
	<stop  offset="5.102041e-03" style="stop-color:#76B4D9"/>
	<stop  offset="1" style="stop-color:#99DCFF"/>
</linearGradient>
<path fill="url(#SVGID_20_)" d="M41,44.9h50.1c0,0-0.8,14.1-7.7,19.2c-7,5.1-35.6,1.9-35.6,1.9S47.2,49.9,41,44.9z"/>
<linearGradient id="SVGID_21_" gradientUnits="userSpaceOnUse" x1="96.0916" y1="34.729" x2="108.5408" y2="34.729">
	<stop  offset="5.102041e-03" style="stop-color:#76B4D9"/>
	<stop  offset="1" style="stop-color:#99DCFF"/>
</linearGradient>
<path fill="url(#SVGID_21_)" d="M108.5,38.8c-2.1-5.5-5.1-10.2-9-14c-1.1,0.3-2.4,0.7-3.5,1.6c10.4,5.7,8,18.2,8,18.2
	C107,43,108.1,41.2,108.5,38.8z"/>
<path fill="#FFFFFF" stroke="#FF0000" stroke-width="1.16" stroke-miterlimit="10" d="M45.9,32.3"/>
<path d="M88.4,44.9H45.9c0,0,1.8,10.5,1.9,21.9c-0.1,0-0.1,0,0,0c0,0,0,0,0,0c-0.6,0.1-1.3,0.1-1.9,0.2c0,0.3,0.1,0.6,0.1,0.9
	c12.5-1.3,25.2-1,37.7,0.4c0-0.2,0-0.4,0.1-0.6C87.6,54.9,88.4,44.9,88.4,44.9z"/>
<path fill="#DE1000" d="M77.4,67c-1-1.7-2.7-3.8-5.6-4c-4.1-0.2-6.1,2.1-6.2,2.2c-0.2,0.2-0.4,0.2-0.6,0.1c-0.2-0.2-0.2-0.4-0.1-0.6
	c0.1-0.1,0.8-1,2.4-1.7l0.2-0.2c-0.5-0.1-1.8-0.2-4.1,0c-2.8,0.2-4.4,2.2-5.3,3.9C63.2,66.5,70.2,66.5,77.4,67z"/>
<linearGradient id="SVGID_22_" gradientUnits="userSpaceOnUse" x1="66.863" y1="77.1055" x2="66.863" y2="67.9004">
	<stop  offset="0" style="stop-color:#77B5DA"/>
	<stop  offset="1" style="stop-color:#99DDFF"/>
</linearGradient>
<path opacity="0.25" fill="url(#SVGID_22_)" d="M66.2,73.2c-7.2,0.2-13.9-1.2-19-3.6c3.3,4.4,10.6,7.5,19.2,7.5
	c9.6,0,17.7-3.9,20.2-9.2C81.3,71,74.2,73,66.2,73.2z"/>
<linearGradient id="SVGID_23_" gradientUnits="userSpaceOnUse" x1="67.1345" y1="58.6787" x2="67.1345" y2="44.8828">
	<stop  offset="0" style="stop-color:#FFFFFF"/>
	<stop  offset="0.4967" style="stop-color:#FDFDFD"/>
	<stop  offset="0.6756" style="stop-color:#F6F6F6"/>
	<stop  offset="0.8031" style="stop-color:#EBEBEB"/>
	<stop  offset="0.9055" style="stop-color:#DADADA"/>
	<stop  offset="0.9928" style="stop-color:#C4C4C4"/>
	<stop  offset="1" style="stop-color:#C2C2C2"/>
</linearGradient>
<path fill="url(#SVGID_23_)" d="M49.7,54.5l6.2-5.6l7.9,9.8l10.8-10.2L80,55l8.1-7.8c0.2-1.4,0.2-2.3,0.2-2.3H45.9
	c0,0,0.3,1.6,0.6,4.1L49.7,54.5z"/>
<radialGradient id="SVGID_24_" cx="45.3093" cy="37.4419" r="8.6061" fx="49.2298" fy="33.0131" gradientUnits="userSpaceOnUse">
	<stop  offset="5.102041e-03" style="stop-color:#76B4D9"/>
	<stop  offset="1" style="stop-color:#99DCFF"/>
</radialGradient>
<path fill="url(#SVGID_24_)" d="M38.9,33.9c-0.3,0.7-0.6,1.9-0.6,2.7c0,3.6,2.6,6.5,6.6,6.5c4,0,7.3-3,7.3-6.6
	c0-0.6-0.1-1.1-0.2-1.6c-2-1.3-4.7-2.1-7.6-2.1C42.1,32.8,40.7,33,38.9,33.9z"/>
<radialGradient id="SVGID_25_" cx="86.1388" cy="33.5729" r="11.9287" gradientUnits="userSpaceOnUse">
	<stop  offset="5.102041e-03" style="stop-color:#76B4D9"/>
	<stop  offset="1" style="stop-color:#99DCFF"/>
</radialGradient>
<path fill="url(#SVGID_25_)" d="M84.6,32.8c-0.9,1.1-1.4,2.5-1.4,3.9c0,3.8,3.4,6.9,7.6,6.9c4.2,0,7.6-3.1,7.6-6.9
	c0-1.2-0.3-2.3-0.9-3.2c-1.9-1.2-4.4-1.9-7.2-1.9C88.2,31.7,86.3,32.1,84.6,32.8z"/>
<path fill="#28A2E3" d="M38.5,32.3c0,0,5.7-4.8,10.8-2.6c5.1,2.2,3.6,3.5,7.8,3.5c5.7,0,5.3-10.2,1.4-11.3c0.2,0.8-0.2,1.7-1.1,1.4
	c-0.6-0.2-5.4-4.2-10.6-3.4C41.6,20.7,37.1,25.4,38.5,32.3z"/>
<path opacity="0.18" d="M51.4,28.2c-6.2-5.5-11.6-0.3-13.1,2.3c0,0.6,0.1,1.2,0.2,1.8c0,0,5.7-4.8,10.8-2.6c5.1,2.2,3.6,3.5,7.8,3.5
	c2.5,0,3.8-1.9,4.2-4.2C59.6,31.7,55,31.4,51.4,28.2z"/>
<linearGradient id="SVGID_26_" gradientUnits="userSpaceOnUse" x1="58.0975" y1="100.8662" x2="58.0975" y2="88.6649">
	<stop  offset="0" style="stop-color:#162C40"/>
	<stop  offset="1" style="stop-color:#162C40;stop-opacity:0"/>
</linearGradient>
<path fill="url(#SVGID_26_)" d="M60.2,88.7c-5.4,0.8-7.8,7.6-8.7,11.6c1.8,0.2,3.7,0.4,5.7,0.6c0,0,0.2-6.9,5.6-9.6
	c0.6,0.1,1.2,0.3,1.8,0.5C64.7,90.1,62.4,88.4,60.2,88.7z"/>
<linearGradient id="SVGID_27_" gradientUnits="userSpaceOnUse" x1="97.2508" y1="106.8535" x2="97.2508" y2="79.8828">
	<stop  offset="0" style="stop-color:#162C40"/>
	<stop  offset="1" style="stop-color:#162C40;stop-opacity:0"/>
</linearGradient>
<path fill="url(#SVGID_27_)" d="M101.4,87.2c0.2-2.5,0.5-7.3,0.9-7.3h-0.4c-1.1,0-2.3,0.9-3.7,1.4c-3,3.9-6.4,9.6-5.9,15.7
	c0.4,5,2,8,3.8,9.8c1.2-2.8,1.7-5.9,1.7-5.9s-1.4-8.1,1.1-12.9C99.7,87.7,100.6,87.5,101.4,87.2z"/>
<linearGradient id="SVGID_28_" gradientUnits="userSpaceOnUse" x1="73.4588" y1="111.4433" x2="73.4588" y2="93.541">
	<stop  offset="0" style="stop-color:#162C40"/>
	<stop  offset="1" style="stop-color:#162C40;stop-opacity:0"/>
</linearGradient>
<path fill="url(#SVGID_28_)" d="M75.8,101.4c-2.4-5.6-5.9-7.3-7.9-7.9c2.9,2.3,5.3,6.5,5.7,14.7c1.1,1.3,3,2.4,5.3,3.2
	C78.5,108.8,77.6,105.3,75.8,101.4z"/>
<path fill="#244766" d="M66.8,29.1c-1.9-0.3-8.2-6.5-5.3-15.1c3.2-9.6,12-10.5,13.7-10.5c4.7,0,13.9,3.2,17.5,16.5
	c0,0-10.8-6.2-16-0.7C72.2,24,69.7,28.3,66.8,29.1z"/>
<linearGradient id="SVGID_29_" gradientUnits="userSpaceOnUse" x1="79.6865" y1="29.0644" x2="79.6865" y2="10.6207">
	<stop  offset="0" style="stop-color:#1C374E"/>
	<stop  offset="1" style="stop-color:#244766"/>
</linearGradient>
<path fill="url(#SVGID_29_)" d="M76.7,19.3c5.2-5.5,16,0.7,16,0.7c-0.4-1.6-1-3.1-1.6-4.5c-2.8-2.9-7.6-5.6-13-4.7
	c-12.1,2-11.6,14.4-11.3,18.3C69.8,28.2,72.2,24,76.7,19.3z"/>
<path fill="#28A2E3" d="M81.1,20.3c-1.3,0.8-2.3,2-2.7,4.6c-0.5,3.2,1.1,7.1,6.3,6.3c4.5-0.7,9-3.1,13.2-2.7
	c4.6,0.4,7.4,3.3,7.9,3.7c0.7-2.4,0.6-5.8-1-9c-1.4-2.8-7.1-8.8-15.2-4.4c-4.4,2.4-5.6,3.3-7.3,3.2C81.7,21.9,80.9,21.4,81.1,20.3z"
	/>
<path opacity="0.18" d="M98.7,25.8c-4.3,0.3-8.3,4.5-14.5,3.2c-5.2-1.1-5-6.4-5-6.4c-0.3,0.6-0.5,1.4-0.7,2.3
	c-0.5,3.2,1.1,7.1,6.3,6.3c4.5-0.7,9-3.1,13.2-2.7c4.6,0.4,7.4,3.3,7.9,3.7c0.1-0.5,0.3-1,0.3-1.5C105.4,28,103.3,25.5,98.7,25.8z"
	/>
<path fill="#99DDFF" d="M103.4,53.7c1.3,0.2,1.2-1.3,1.2-1.3c3,2.5,3.2,11.2,0.7,14.9c-2.5,3.7-10.5,7.1-7.7,15.4
	c2.9,8.4,11.8,13,18,11c6.2-2,10.9-12.4,12.3-16.6c1.4-4.2,0.5-18.7-8.3-33.1c-8.8-14.4-15-9.7-15-9.7l-1.1,0.4"/>
<linearGradient id="SVGID_30_" gradientUnits="userSpaceOnUse" x1="106.1726" y1="47.1947" x2="106.1726" y2="69.9082">
	<stop  offset="5.102041e-03" style="stop-color:#76B4D9"/>
	<stop  offset="1" style="stop-color:#99DCFF"/>
</linearGradient>
<path fill="url(#SVGID_30_)" d="M106.2,47.6c-1-0.8-1.8-0.4-2.5,0.3l-0.4,5.8c1.3,0.2,1.2-1.3,1.2-1.3c3,2.5,3.2,11.2,0.7,14.9
	c-0.6,0.9-1.5,1.8-2.5,2.7c1.4-0.3,3.6-1.5,5.4-6.1C110.9,56.8,109,49.7,106.2,47.6z"/>
<linearGradient id="SVGID_31_" gradientUnits="userSpaceOnUse" x1="112.7435" y1="94.1037" x2="112.7435" y2="48.8545">
	<stop  offset="5.102041e-03" style="stop-color:#76B4D9"/>
	<stop  offset="1" style="stop-color:#99DCFF"/>
</linearGradient>
<path fill="url(#SVGID_31_)" d="M122.3,48.9c1.5,6.6,3.8,19.3,1.3,27.3c-3,9.5-6.3,11.5-9.3,12.5c-2.9,0.9-5.1,0.2-6.6-1.3
	c-0.4-0.4-1.5-2.7-3.3-3.9c-1.1-0.8-3.6-1.6-4.5-2.9c-1.2-1.7-1.4-3.9-1.3-6.4c-1.5,2.2-2.4,4.9-1.1,8.5c2.9,8.4,11.8,13,18,11
	c6.2-2,10.9-12.4,12.3-16.6C129.1,73.3,128.6,61.5,122.3,48.9z"/>
<path fill="none" d="M54.2,74.7c0,0,10.3,5.5,24.2,0"/>
<path d="M52.2,34.6c-3.2-3.2-8.7-2.5-8.9-2.5c-0.3,0-0.5,0.3-0.5,0.6c0,0.3,0.3,0.5,0.6,0.5c0,0,1.3-0.2,2.9,0
	c-0.5,0.6-0.9,1.3-0.9,2.2c0,1.5,1,2.8,2.4,3.1c-0.3,0.1-0.7,0.2-1.1,0.2c-0.6,0-1.3-0.3-1.6-0.5c-0.3-0.2-0.6-0.1-0.8,0.2
	c-0.2,0.3-0.1,0.6,0.2,0.8c0.1,0.1,1.2,0.6,2.1,0.6c2.1,0,3.3-1.3,3.9-2c0.7-0.6,1.1-1.4,1.1-2.3c0.1,0,0.3-0.1,0.4-0.2
	C52.5,35.2,52.5,34.8,52.2,34.6z"/>
<circle fill="#FFFFFF" cx="49.9" cy="35.1" r="1"/>
<path d="M92.4,31.4c-5.9-0.6-8.4,1.9-8.5,2.1c-0.2,0.2-0.2,0.6,0,0.8c0.1,0.1,0.3,0.2,0.4,0.2c0,0,0,0,0,0c0,0.1,0,0.2,0,0.2
	c0,0.7,0.2,1.3,0.6,1.8c0.1,0.5,0.4,1.1,1.1,1.6c0.6,0.4,1.4,0.7,2.3,0.7c0.6,0,1.3-0.1,2.1-0.3c0.3-0.1,0.5-0.4,0.4-0.7
	c-0.1-0.3-0.4-0.5-0.7-0.4c-1,0.3-1.8,0.3-2.5,0.2c1.4-0.2,2.4-1.4,2.4-2.8c0-0.8-0.4-1.6-0.9-2.1c0.9-0.1,1.9-0.1,3.1,0
	c0.3,0,0.6-0.2,0.6-0.5C93,31.7,92.7,31.4,92.4,31.4z"/>
<circle fill="#FFFFFF" cx="87.9" cy="33.7" r="1"/>
<path fill="#122433" d="M57.2,100.6c-0.2,1.2-6.2,1.1-13.5-0.3C36.5,99,30.8,97,31,95.8c0.2-1.2,6.2-1.1,13.5,0.3
	C51.7,97.4,57.4,99.4,57.2,100.6z"/>
<polygon fill="#F9C621" points="163.3,79.1 149.6,78.3 150.1,79.8 136.8,81.2 154.9,84.5 154,82.6 "/>
</svg>
